<?xml version="1.0" encoding="UTF-8"?>
<svg id="Calque_1" data-name="Calque 1" xmlns="http://www.w3.org/2000/svg" viewBox="0 0 36.21 105.07">
  <defs>
    <style>
      .cls-1 {
        fill: #fff;
      }
    </style>
  </defs>
  <path class="cls-1" d="M26.61,29.67c3.12-1.23,7.41,2.55,7.41,2.55,0,0,2.2-7.72,2.2-13.51C27.14,18.71,22.62,0,22.62,0h-9.03S9.08,18.71,0,18.71c0,5.79,2.2,13.51,2.2,13.51,0,0,.02-.02.05-.04.49-.42,4.44-3.66,7.35-2.51,2.73,1.07,1.81,8.51,1.53,10.36-.04.26-.06.42-.06.42h-2.22c-.14,0-.27.01-.4.04-.04,0-.08.02-.12.03-.09.02-.17.04-.26.07-.05.02-.09.04-.14.05-.07.03-.15.06-.22.1-.04.02-.09.05-.13.08-.03.02-.06.04-.08.06h.05c-.63.43-1.04,1.16-1.04,1.97,0,1.23.93,2.23,2.11,2.37h5.12v59.86h8.67v-59.86h5.29c1.19-.14,2.11-1.14,2.11-2.37,0-1.32-1.07-2.4-2.4-2.4h-2.28s-1.65-9.54,1.47-10.77Z"/>
</svg>