<?xml version="1.0" encoding="UTF-8"?>
<svg id="Calque_1" data-name="Calque 1" xmlns="http://www.w3.org/2000/svg" viewBox="0 0 346.43 565.77">
  <defs>
    <style>
      .cls-1 {
        fill: #0a1a2d;
      }
    </style>
  </defs>
  <path class="cls-1" d="M214.99,430.35l1.69-3.86c3.44,2.99,5.98,7.65,11.26,6.58l4.54-7.91c1.04-4.06-8.9-13.96-10.22-18.38.34-5.86,4.76-4.9,6.93-6.63.93-.74,7-7.83,7.26-8.67,1.12-3.67-6.02-3.69-4.65-10.52,1.23-6.11,4.07-2.38,6.01-2.7.74-.12,1.54-2.09,2.97-2,.73.05,10.45,4.28,10.68,5.3.78,3.56-9.94,5.69-10.61,7.92l2.65,12.48c6.66,1.42,18.62,6.53,25.03,4.01,1.55-.61,1.99-2.49,3.81-3.31,3.01-1.36,9.81-.78,10.65,3.05.85,3.87-7.96,16.75-9.25,22.51-1.96,8.74.58,12.56,2.97,19.73,2.2,6.56-6.75,35.29-10.14,42.3-2.61,5.39-12.79,21.47-16.7,25.51-1.47,1.52-19.87,11.79-21.08,11.68-2.07-.18-2.56-3.03-4.22-3.98-2.14-1.21-4.9-.13-6.82-2.6-2.1-2.7-1.03-13.92-3.07-18.26-3.45-7.33-19.26-30.22-24.72-37.21-7.11-9.11-11.69-9.48-13.38-23.63-1.06-8.88-.22-17.56,10.12-19.44,9.56-1.74,18.95,7.91,28.28,8.03Z"/>
  <path class="cls-1" d="M422.69,345.99c.98.66,2.16,3.45,2.86,4.65,2.86-2.31-1.72-5.31-2.84-6.96-.76-1.12-.09-2.88-1.26-3.85-2.11-1.75-8.51-2.21-4.12-6.2,6.32-5.73,12.48-1.85,17.85-7.34l-2.51,4.86,4.95,2.65c-.01,1.85-.45,3.56-1.01,5.32-3.06,9.68-8.45,18.86-12.33,27.98-2.59,6.09-3.44,12.23-7.01,17.82-2.95-3.98-8.69-2.88-11.49-4.5-.75-.44-6.08-13-12.59-9.83l-4-6.34c3.7-5.31,1.29-12.62,1.41-18.39,4.99-2.71,7.93-5.94,13.74-2.43l.02-2.97-15.35-6.62c-3.09-5.34-4.81-8.9-6.13-15.07l-14.52-1.28c-6.98-9.28-20.45-12.33-17.09-26.4.36-1.5,3.59-.14,3.41-4.73-.27-6.88-4.19-10.97-10.32-13.51l-3.62,3.82c-.73,1.93,11.15,17.34,7.33,22.22-2.87-1.82-6.67-1.26-9.41-2.99-3.11-1.97-2.88-4.64-4.53-6.52-6.1-6.96-15-8.63-22.23-13.26-.55-.35.23-1.69-.52-2.23-1.62-1.16-4.3-1.3-5.59-3.34l-1.69,1.57c-1.95-1.61-.97-8.04.77-8.92.42-.21,2.48.66,3.84.23,2.05-.65,4.31-2.79,6.58-2.05,3.02.99,8.95,5.07,7.28,8.72l4.53,1.71,1.36-3.41-1.39-2.46c9.41,4.98,16.1.68,23.28-5.46-3.6-4.98-10.47-3.07-15.39-4.41-8.39-2.3-5.4-9.66-14.45-12.1l-3.08-7.06c1.56-1.2,2.6-.46,4.14-.16,6.16,1.2,10.75,2.83,17.41,3.31,2.56.19,5.11-1.22,7.36-.51,4,1.28,17.65,7.61,21.81,9.82,1.81.96,2.8,3.42,4.36,3.98,3.17,1.13,6.71-2.6,10.94,4.52,2.37,4-.43,7.53-3.84,10-2.54,1.84-6.29-.18-8.57,2.52,4.04.88,16.53,6.32,18.05,9.48.94,1.96-1.01,6.93,0,10.04.87,2.69,4.37,4.04,4.53,7.35.14,2.99-3.44,4.87-2.56,10.29.89,5.48,10.65,7.54,13.12,5.28,3.79-3.47-6.29-14.57,5.64-20.82,1.79-.94,9.69-5.26,10.25-5.44,1.19-.39,8.33-.08,10.19.2l.18-3.44c4.37,9.82,15.26,7.32,23.93,10.64-3.9,4.82-3.46,11.77-6.63,16.71-1.65,2.58-4.59,2.04-5.93,3.79-1.13,1.47-1.33,4.09-2.45,5.01-.32.26-3.89.33-5.19.69-1.39.38-2.75,2.26-3.39,2.05-1.31-.41-2.69-3.25-4.94-2.91-3.2.48-9.59,7.02-14.19,7.04l.71-3.22c-4.75-.83-2.32-8.36-7.59-8.82-4.65.77-.58,7.01-3.62,9.1-2.48,1.7-6.3-4.5-8.24-1.51-.93,1.42,5.89,9.07,6.28,11.56,3.16.46,7.77,6.3,8.28,6.5,4,1.58,12.2,3.99,15.22,6.02ZM370.82,268c-4.12-1.64-13.5-11.11-16.62-5.42,5.72.46,11.39,8.71,16.62,5.42ZM378.69,307.47c6.6,4.8,11.62-4.18,6.21-9-.64-.57-6.67-4.17-7.35-4.35-1.64-.44-3.62,1.03-4.72.37-.75-.45-1.12-2.88-2.38-4.05-4.57-4.24-8.41-4.78-14.3-3.03l3.17,11.21c8.23-5.04,16.01.77,23.4,4.58l-4.02,4.27Z"/>
  <path class="cls-1" d="M244.14,111.36c-.81.65-2.9,5.85-2.74,6.73,1.38,1.36,3.13,2.79,4.97,3.44,1.98.7,2.66-2.76,5.37-.34-2.73,2.51-.3,12.91,2.05,14.53.8.55,2.43.09,3.46,1.11.31.3,4.03,7.2,4,7.63-.87,2.97-4.42,3.15-5.8,5.87-1.39,2.74.13,4.84-.6,6.15-1.59,2.85-5.71,6.7-8.6,3.7-1.22-1.26-10.75-14.55-10.91-15.49-1.09-6.55,5.39-8.2,5.32-13.19-.04-2.91-2.01-4.47-2.48-7.25-1.79-1.73-8.85,2.9-11.99,2.94-4.22.06-7.06-2.71-10.67-3.46-3.41-.72-18.49,1.59-20.9,3.34-2.67,1.94-3.24,8.98-10.4,6.1-3.62-1.46-1.56-7.83-1.89-10.91-1.39-13.12-1.17-20.43,4.66-33.2,9.28-20.35,26.27-36.36,35.31-56.45,1.18-2.63.62-5.54,2.12-8.38,6.06-11.51,14.42.86,19.03,6.79,15.17,19.48,13.37,39.34,16.65,62.59-.86,3.92-5.56,5.87-6.88,8.77-1.03,2.25-.36,5.65-1.73,7.33-1.48,1.81-6.53,1.02-7.33,1.66Z"/>
  <path class="cls-1" d="M169.5,128.25c1.08,2.7,6.18,5.45,8.96,6.21-1.09,2.91-13.75-1.24-10.35,4.2,2.6,4.17,6.68,1.47,10.02,2.18s7.29,2.52,10.87,3.34c4.64,1.07,9.94.47,14.65,3.73-.03-3.83-4.89-3.45-7.1-5.74-1.08-1.12-3.98-6.3-2.6-7.84,2.11-2.36,24.15-3.17,25.72-2.13.24.16,3.26,4.53,3.29,4.82.17,1.46-1.23,2.83-1.42,4.19-.16,1.12,1.7,1.94,1.91,3.56.06.49-.14,8.91-.25,9.36-1.48,6.1-10.45,2.76-14.06.67.41,2.66,3.22,6.75,5.91,6.91,1.41.08,2.35-1.84,3.57-2.04,25.87-4.15,38.66,25.23,62.25,28.44l2.34,4.76c-3.27,1.31-7.44.74-8.93,4.63-.57,1.48-.08,3.66-.47,4.46-.37.77-2.35.07-3.14.67-1.89,1.44-2.74,4.23-5.36,4.47-7.39-2.59-9.65-9.51-13.59-14.86-1.32-1.79-3.73-2.73-5.09-4.52-2.45-3.21-.71-7.99-5.06-9.67-.59-.23-12.03,1.03-12.59,1.33-.91.49-.76,2.73-1.84,2.52-5.14-.99-7.95-11.55-14.3-12.73-1.78,2.65.31,4.44.48,6.93.09,1.27-1.17,2.91-.91,4.6.2,1.3,2.26,2.15,2.28,4.97.02,2.65-2.94,4.85-2.16,8-6.95.42-10.73-9.76-13.76-11.28-2.06-1.03-5.71-.38-7.96-1.98l12.17,15.29c-1.54,5.37-.59,12.3-1.07,18.15-.26,3.09-2.26,7.09-2.25,10.22.01,3.37,3.67,6.55,2.91,9.74-.63,2.69-11.15,12.8-13.93,14.38-3.73,2.12-7.46,4.09-10.52-.06-.85,1.99-.63,3.95-3.24,2.24l5.16-15.04,8.09-.97c.96-4.53,1.91-6.29,5.08-9.59-6.33.06-5.12,5.12-10.19-1.89-4.48-6.19-1.37-10.48-3.15-14.61-.88-2.04-3.16-2.72-3.86-5.12-1.41-4.85,7-9.57,8.9-14.04.51-1.19,3.08-11.84,2.92-12.81-1.27-7.5-12.6-7.28-16.9-13.77-1.63-2.46.02-5.52-1.57-6.89-3.96-3.42-11.11-3.12-15.52-4.98-1.57-.66-.53-3.8-3.67-3.94,1.1-1.5,3.64-.53,5.81-1.2,1.21-.37,2.07-1.95,3.41-2.24.5-.11,13.6.52,7.84-2.71-1.5-.84-7.35.86-9.67.93-5.36.16-10.37-2.88-13.9,3.84l-2.74-3.43c-.67-.69-1.11,3.05-2.81,1.22-2.89-3.12,3.48-9.68,5.65-12.15,2.95-3.36,3.48-3.44,6.64-7.96,3.27-4.67,13.01-3.68,17.17-1.14,3.07,1.87,1.11,4.31,1.94,6.37Z"/>
  <path class="cls-1" d="M276.18,338.67l11.88,2.22-1.3,1.82c3.61.11,2.7,2.72,3.57,3.65.94,1.02,2.85,1.43,4.19,3.07,2.1,2.58,2.25,7.53,6.78,8.41,1.73-3.41-2.36-4.96-3.48-7.31-2.34-4.91-4.45-13.42-5.75-18.56-.31-1.23-2.36-2.08-1.82-2.54l3.55-.54-.13-2.19c6.78.57,11.37,6.69,17.46,9.22,3.94-7.14-4.02-6.99,2.36-13.01,9.63-9.09,8.96,6.59,12.75,9.42,1.6,1.19,2.32.85,3.89-.03.1-2.09-1.62-6.29-1.34-7.86.3-1.7,2.68-3.39,2.55-3.98-.21-.88-11.78-7.63-14.3-11.05-2.07-2.81-1.94-6.3-3.13-8.37-3.63-6.31-10.49-7.78.88-13.93,5.99,2.91,19.3,5.48,23.06,10.75.79,1.11,3.15,11.12,2.96,12.19-.35,1.89-4.65,2.58-5.04,5.11,4.49,3.99,11.12-1.52,16.88.21,6.5,1.94,12.01,7.44,17.31,9.85s7.34-.08,11.33,6.78c6.03,10.37-1.36,8.77-3.11,12.27-.84,1.68-.14,3.96-1.43,6.17-1.61,2.75-9.11,6.8-9.99,8.3-.95,1.62,1.37,3.48,1.17,5.18-.9,7.49-19.01,3.75-14.47-4.58l-2.24-1.67c-3.37.2-.71,5.8-8.57,3.51-7.89-2.29-12.93-6.63-19.31-9.93-3.55-1.84-12.42-5.11-9.03,2.23,2.59,5.62,19.59,15.1,19.63,16.71-9.63.67-19.63-1.41-27.77-6.87l4.33,7.78c2.73,2.17,4.65,5.32,8.11,6.59,7.47,2.72,19.66-2.91,24.68,4.4-5.02,3.35-9.48,3.19-14.8,4.1-1.28.22-1.96,1.86-4.41,1.93-10.43.31-31.15-6.33-38.29-13.85-3.41-3.59-11.33-21.27-9.1-25.49.88-1.66,3.07-1.54,2.98-2.98-.19-2.98-5,1.22-5.37.22l1.91-2.23c-2.03-1.72-1.57-2.86-.04-5.1ZM349.24,346.17l-5.45-.87,10.75,5.43c1.66-.55-1.4-7.94-4.07-7.47l-1.22,2.91Z"/>
  <path class="cls-1" d="M286.6,250.67c.32.55,1.86,2.6,2.11,2.46l.38-6.87c8.37-.17,17.2-2.53,24.56,3.22l-.41,3.95-5.41-.8c-2.02,6.56-2.19,3.59-5.24,4.29-4.62,1.06-4.35,13.04-11.9,6.48-17.22,14.13,7.28,11.03,16.8,14.78l.79,2.02c-3.2,2.91-1.88,3.1.21,5.99-6.57-.33-7.5,1.74-7.85,8.02-3.42,2.11-16.91-10.4-11.66-15.1l-3.02-1.25,1.83-1.6c-6.42-2.54-15.86,2.6-16.79,9.79,6.98,1.48,3.61,2.73,4.72,5.91.98,2.8,5.15,6.91,6.66,11.44,1.18,3.55,1.36,9.58,2.28,13.31.34,1.37,2.09,2.45,2.49,3.97.88,3.29-1.17,7.66-2.39,10.71-2.75-1.18-5.75-1.94-8.3-3.55-2.31-1.47-9.27-11.07-12.01-7.38-.43.58-.54,13.08-.33,14.41.47,3.01,3.47,6.56,3.92,9.23.49,2.86-.79,5.14.15,8.34,1.03,3.55,5.14,8.09,5.51,12.7-2.43-.2-4.24,3.78-4.94,3.89-.59.09-8.63.61-9.08.53-1.31-.24-16.89-5.24-17.67-5.74-2.37-1.51-.56-4.97-4.34-5.3l12.09-9.89-9.71-7.96,3.8-6.67c-6.79-3.47-6.44-8.22-2.35-14.19,2.52-3.69,11.21-4.18,15.64-4.63,2.18-.22,8.24,1.64,8.67-1.21.29-1.92-4.86-13.96-.85-18.58l-19.05-5.17c5.44-13.73-1.02-32.54,9.9-44.11,1.12-1.19,13.52-8.81,14.63-9.01,2.74-.52,13.41,8.42,15.5,10.99.56.69.29,1.99.65,2.6Z"/>
  <path class="cls-1" d="M287.35,477c.24-.24,1.93.43,3.18-1.24,3.25-4.32,6.49-13.94,12.95-14.83,11.71-1.61,27.98,17.1,36.92,23.32,7.79,5.41,17.71,9.7,26.06,14.35l-19.94,47.16c-14.49.08-12.25-1.6-18.92-11.43-9-13.25-21.49-26.96-34.14-38.14-3.13-2.77-10.98-5.57-10.1-9.91.36-1.81,2.86-8.14,4-9.29Z"/>
  <path class="cls-1" d="M44.73,260.43c18.66-8.23,34-18.77,55.92-13.53,6.38,1.53,9.48,8.28,15.46,3.71-1.04,1.85-1.35,4.83-2.49,6.41-.65.89-2.52-.02-3.8,1.29-4.24,4.34-4.37,10.32-12.43,8.32-6.87-1.7-7.02-5.85-10.82-10.36-1.06-1.26-2.92-1.6-3.7-2.43-1.04-1.09,1.06-2.85-1.98-3.08-.48,6.26-6.99,4.17-8.64,9.88,4.4,4.68,2.72,21.88,6.14,25.26,2.09,2.06,7.14,4.1,9.95,5.35l-2.85-4.63c11.33,4.99,24.31,6.29,34.48,13.63-.94,3.89-6.07,2.18-7.94,3-1.17.51-1.71,2.42-2.91,2.96-1.9.85-10.59,1.3-13.43,2.04-2.94,1.95,10.8,6.48,11.89,7.03,9.03,4.52.46,4.08-.76,6.17-1.76,3-.97,7.91-3.14,11.07-5.24-1.43-5.86-5.44-7.01-9.87-1.17-4.51-1.17-2.3-3.4-6.04-.72-1.2-1.32-4.82-1.51-5-.59-.55-7.42-1.79-7.94-2.5-.27-.38.21-1.98-.36-2.66-1.17-1.39-3.12-1.9-4.02-3.35-1.37-2.21.02-10,2-12.19l-12.39-7.27c-2.19.92-1.57,17.92,2.69,19.85l-8.92-1.14-2.39,6.04c3.12,3.07,6.97-.33,8.02-.27,2.64.15,16.5,2.36,18.02,3.49.89.66.17,2.41.78,3.19,1.92,2.44,5.28,1.68,3.41,5.98-3.76,8.65-14.77,7.34-21.23,2.62-2.73-1.99-3.62-7.29-5.7-9.3-3.53-3.43-9.86-5.97-13.86-10.81-3.71-4.5-4.72-12.51-10.16-16.61-4.12-3.11-12.56-2.82-14.35-5.56-.91-1.39.86-4.24.75-6.21-.11-2.09-3.2-4.35-1.28-6.78,2.19-2.09,5.1-.92,7.7-1.81,4.24-1.45,8.24-4.16,12.19-5.9Z"/>
  <path class="cls-1" d="M172.74,259.05c4.29,1.03,15.11-2.15,18.6-4.6.95-.67,1.54-2.43,2.75-3.46.67-.57,2.25.08,3.14-.89,1.14-1.26,7.71-13.25,8.3-15.07.46-1.41-.71-16.65.27-21.19.36-1.69,5.08-15.34,5.67-15.93,2.83-2.82,8.7,1.95,9.7,5.08.78,2.44-1.01,5.54,2.99,6.8,6.15-1.29,11.71-6.79,18.19-5.51-1.75-6.73-12.06-6.64-15.89-8.63-2.15-1.12-4.44-5.91-8.88-5.84-1.98-4.33,18.11-5.94,21.07-4.57,2.24,1.04,12.36,14.07,5.31,14.99,5.2,2.63,19.11,3.01,12.1,11.46-4.2,5.06-12.64,11.28-19.21,8.05l2.31-1.44c-3-2.81-8.58-.4-9.86-.65-3.45-.69-.18-1.4-4.69-.55-1.85.35-4.51-.89-5.42,1.87l-.22,8.94c.86,1.38,9.89-4.05,14.62,1.64.71,3.61-7.92,5.79-3.87,9.65,4.85-6.24,11.63-9.84,17.61-14.69,2.07-1.68,3.52-6.03,6.84-4.72,1.53.61,6.25,4.57,7.25,6.1,5.35,8.13-3.35,10.8-7.92,14.85-4.08,3.61-4.04,6.08-6.14,9.01-4.46,6.24-12.7,5.25-18.09,6.85-2.69.8-4.65,3.24-7.45,4.15-2.19.72-7.21.28-9.41,1.56-2.42,1.41-2.17,4.1-4.43,5.29-.57.3-11.55,1.63-12.77,1.59-2.71-.08-4.44-1.91-6.7-1.93-2.73-.02-7.99,2.76-9.73,2.04-2.4-.99-4.55-5.78-8.09-5.32l2.07-4.93Z"/>
  <path class="cls-1" d="M380.95,473.82l-1.74-3.03-1.74,2.83c-5.32-2.13-9.96-4.31-14.87-7.4-7.82-4.94-21.88-15.03-28.05-21.47-8.34-8.71-13.22-19.86-11.58-31.96,3.89-2.66,4.29,1.98,6.45,3.1,1.88.97,4.72.35,7.36,1.76,3.57,1.91,6.19,9.47,12.16,6.56-2.32-3.51.58-4.99,2.01-8-9.58-2.61-16.08-17.41-11.93-26.44,1.78-3.87,4.4-3.68,7.94-2.19l4.34-13.3c6.21-.33,11.56-.05,17.3-2.73l-6.45,4.48c6.64,2.27,4.75,9.93,12,12.88-2.95,9.13-7.57,18.97-6.46,28.87.41,3.63,3.37,7.13,1.71,11.08-1.62,3.84-13.68-1.38-16.57-2.52-2.95,7.7,3.94,6.12,7.72,7.98,1.57.77,3.52,3.16,5.6,4.4,4.21,2.51,7.35,2.72,10.38,7.63l-2.13,2.58,13.8,6.64-7.22,18.27Z"/>
  <path class="cls-1" d="M178.53,303.44c.83,2.35,10.56-5.67,11.93-6.4,1.67-.88,3.88-1.98,5.69-2.39,4.43-1,9.35.25,13.94.14,2.26-7.44-5.09-8.07-9.04-12.05-1.85-12.95,10.59-9.7,18.98-14.5,4.33-2.48,7.23-8.23,13.11-4.94,1.61.9,8.34,9.59,9.06,11.27,1.4,3.25,1.63,15.34.21,18.41l-11.8,9.35c-1.64,4.66,14.73-.33,15.58,2.04-2.58,3.87,1.36,5.84-.57,10.25-11.22-3.67-12.88,10.34-19.28,14.79-3.62,2.52-1.33-6.29.56-8.47,1.11-1.28,3.38-.21,3.81-1.07.14-.28,1.36-6,.12-6.3-1.2,4.83-5.54,3.83-7.4,5.31-1.18.93-4.77,11.38-3.98-.4l-7.38-1.6-6.93,5.3c5.39-6.27,12.91-10.79,19.97-14.99-1.12-4.14-6.23-1.81-9.2-4.38-1.89-1.64.15-7.36-7-6.26-2.51.68-12.97,24.88-11.27,27.2,1.02,1.39,4.92.55,3.26,3.19-5.18.72-12.17-.76-11.92,6.44l-2.01-.81.58-1.86c-4.01.63-4.22-3.14-6.95-4.3-3.29-1.39-5.73,1.81-7.32.75l.08-13.57,4.59-5.69-6.48-1.41,1.99-2.6-1.61-1.34c5.01-1.76,3.51-3.87,2.99-7.61l-3.81,6.69c-3.6-.53-.49-2.7-.96-5.06-.19-.97-1.97-1.6-1.85-2.73.8-7.24,8.8-8.29,13.81-4.11,2.74,2.29-2.93,10.6-3.49,13.7Z"/>
  <path class="cls-1" d="M287.95,127.34l.74,10.19,16.2,10.61,11.5-21.36c.35-.15,3.72,3.91,3.83,4.17.64,1.55-1.3,5.73,2.48,6.53,3.13-3.38,1.41-7.97,1.79-12.11.23-2.58,1.7-4.74,1.82-7.52.29-6.35-13.59-16.73-.78-18.69,6.7,7.72,14.38,12.89,17.18,23.35.53,1.96-.14,3.95.22,5.79,1.55,7.84,5.46,11.73-2.92,18.11l-11.81-2.06c6.57,6.17,18.91,12.76,16.43,23.27-2.06,2.87-6.99,1.28-8.37,2.23-1.16.8-1.34,2.96-2.19,3.57-2.32,1.67-12.76-5.09-14.87-7.09-5.11-4.84-3.54-16.78-13.03-16.48-1.24,6.64-9.42,4.75-11.82,11.48-5.82-1.19-11.87-5.29-14.42-10.77-.55-1.19-2.38-9.24-2.35-10.32.11-3.6,4.82-18.31,10.35-12.91Z"/>
  <path class="cls-1" d="M108.15,181.75l2.17-14.39c6.7.4,9.52,6.45,13.59,8.83,4.44,2.6,9.49,2.52,12.79,7.5-.12,3.15-5.39,2.14-5.92,2.98-4.16,6.66,5.08,2.7,5.55,2.82,1.26.3,1.61,2.65,3.13,3.38,1.25.6,3.64.32,5.48,1.04,5.53,2.15,22.48,6.99,21.76,14.18-.08.84-3.23,11.66-3.59,12.19-1.83,2.66-10.15,2.74-12.78,1.51-.55-.26-8.44-6.34-9.62-7.31-1.17-.97-3.04-6.61-7.75-6.47-1.1.38,1.1,8.7,2.02,9.54.82.74,3.34.73,5.17,1.97,2.32,1.57,7.61,6.73,3.96,9.36-2.62.57-5.39,1.26-7.99.09-3.53-1.59-16.63-11.99-19.56-15.12-2.89-3.09-5.16-9.48-7.27-11.17-2.85-2.29-5.53-1.49-8.52-2.93-2.63-1.26-7.54-6.26-8.56-8.98-1-2.64-.05-15.75,2.66-17.29,6.19-3.52,12.05,8.84,13.25,8.28ZM133.57,203.52c1.42-9.85-5.01-7.18-10.71-10.02-2.38-1.18-3.35-3.3-5.33-4.46-4-2.35-9.77-3.91-13.99-1.49,1.84,8.12,5.7,4.43,11.02,6.02,3.9,1.16,17.43,10.36,19.01,9.95Z"/>
  <path class="cls-1" d="M168.82,191.87c-.36.13-3.11,4.52-6.26,3.86-.45-.09-7.94-3.77-8.32-4.04-.73-.53.44-2.59-1.3-2.87l-2.89-.49-1.47,2.39c-3.81-2.94-9.11-6.23-12.24-9.83-2.02-2.32-9.36-13.61-7.4-16.1l2.23-.73c13.56,4.23,25.37,8.48,34.91,19.48-.23-11.13-4.44-14.94-14.02-19.39-1.7-.79-4.25-.42-6.45-1.5-3-1.47-5.42-6.46-9.4-7.34l.42,4.84-10.51-2.89c-3.43,10.38-11.18,4.3-13.28-2.75l-2.11.07.47-3.72c2.39-3.99,19.76,1.33,23.95,1.03,2.07-.15,4.61-2.74,6.54-2.46,1.26.19,20.89,9.32,23.17,10.68,9.48,5.64,16.71,16.63,13.52,27.83-2.59,9.07-7.46,3.17-9.56,3.93Z"/>
  <path class="cls-1" d="M294.13,21.06c6.64-1.24,17.36.05,23.64,2.97,4.12,1.91,11.85,6.53,9.65,11.69-2.51,5.89-37.74,25.86-43.84,24.16-4.66-1.3-11.34-15.72-10.23-20.02,1.04-4.01,9.49-13.85,13.14-16.12.9-.56,6.64-2.49,7.66-2.68Z"/>
  <path class="cls-1" d="M370.22,169.88c.6,1.74,2.08,3.1,1.7,5.55-.77,4.98-4.68,13.58-10.11,14.48-6.65,1.1-9.99-9.69-15.63-12.55-.38-4.67,4.52-8.64,5.34-12.33.54-2.42-1.03-5.63-1-8.05.09-5.54,1.29-11.04.36-16.54l9.56,11.4c.19-6.88-7.38-13.31-8.62-18.12-.31-1.19-2.41-15-2.34-15.8.16-1.86,1.63-6.22,3.48-6.67,16.6,3.12,25.73,31.39,17.63,44.6-.68,1.1-1.21,1.61-2.5,1.91-1.82-2.16-4.31-5.58-7.41-3.48,3.59,6.05,7.2,8.87,9.54,15.61Z"/>
  <path class="cls-1" d="M124.12,432.14c-.4.28-4.18-.42-5.23-1.45-.51-.5-7.78-10.67-8.29-11.61-5.23-9.68,3.58-23.2,9.69-30.69-4.24-1.27-6.48,1.99-11.18,2.27-5.16.31-11.05-1.1-16.16-1.36l1.76-1.56c-3.35-2.31-6.38-5.29-4.97-9.66,1.45-4.5,3.8-2.43,6.56-3.32,1.81-.58,5.24-2.7,6.58-2.53,2.26.29,2.69,3.87,6.05,4.68,2.46.59,4.98-1.88,7.93-1.4,5.25.87,7.71,6.47,14.33,3.1-2.4,1.94-.74,4.06-1.28,5.86-1.11,3.73-3.99,5.29-2.5,11.34,1.07,4.37,6.81,5.44,3.31,10.76l1.81-1.63c.47-.16,1.5,2.12,1.42,2.32-1.4,3.54-8.74,24.09-9.83,24.86Z"/>
  <path class="cls-1" d="M304.35,392.09c1.25-.23,5.08,2.09,7.39,2.48,2.87.49,20.99-2.04,20.25,4.23-2.15,4.03-6.69,2.52-10.12,5.58-4.63,4.12-11.18,15.61-13.49,21.44-.84,2.12-.51,4.66-1.34,6.41-.21.44-5.49,7.5-5.9,7.76-1.27.81-6.69-1.45-9.15,2.19-3.46-.41-1.42-8.75-1.67-9.77-.15-.62-2.8-2.56-3.76-4.69-.83-1.86-1.6-6.69-1.16-8.74.88-4.12,6.2-14.95,8.7-18.53.64-.92,9.6-8.24,10.25-8.36Z"/>
  <path class="cls-1" d="M363.05,24.79c1.72-1.09,5.77-2.19,7.9-2,4.17,2.73-6.43,20.41-7.56,23.42-2.6,6.95-2.56,15.16-7.36,21.67-2.53,3.43-9.9,6.08-10.95,12.55l-12.19-2.21c-.17-3.05-2.8-8.42-2.32-10.98,2.16-11.54,22.42-36.06,32.48-42.45Z"/>
  <path class="cls-1" d="M264.22,146.06c3.31.51.77,2.49,1.66,4.7.5,1.25,3.66,6.31,4.64,7.26,7.28,7.08,26.77,8.29,19.55,20.54,5.39-.44,4.64,3.71,7.7,7.17,1.59,1.8,5.46,4.85,7.62,5.94,2.67,1.36,14.26,3,11.8,5.81l-5.04,3.3c-.66,4,4.42,5.29.25,8.99-9.59,1.06-9.44-4.92-13.9-10.07-2.36-2.73-6.97-5.88-8.57-8.89-1.29-2.42-.09-4.94-.93-5.66-4.35-3.7-9.16-3.27-13.05-5.03-4.61-2.08-12.94-6.27-15.77-10.05-7.05-9.45-3.17-16.36,4.04-24.02Z"/>
  <path class="cls-1" d="M281.16,76.48c4.25,6.54,9.1,3.63,14.74,5.72,6.71,2.48,16.85,8.97,16.13,17.02-2.53-.97-4.42,1.16-6.51,1.53-.98.17-6.14-2.15-5.01.95.82,2.26,11.29,13.45,14.82,12.92l-10.1,19.37c-3.3.71-9.25-10.8-9.56-13.79-.17-1.68.55-14.83.96-16.47,1.03-4.12,6.15-9.82-3.64-10.62-7.69-.63-2.85,14.66-6.17,16.72l-3.03.43c-2.29-1.38-6.45-15.66-6.11-18.42s2.15-5.11,2.6-7.85c.47-2.85-2.19-4.91.86-7.52Z"/>
  <path class="cls-1" d="M133.19,305.55c12.16,4.39,33.83,2.97,37.12,18.69,1.5,7.16-4.61,13.76-6.82,20.19-3.46-.55-3.09-4.86-4.22-6.37-3.87-5.22-9.48-8.08-15.76-9.68-1.78-.46-3.53.96-5.78,0-.73-.31-8.69-7.08-9.29-7.84-2.28-2.91,3.06-11.56,4.76-14.99Z"/>
  <path class="cls-1" d="M174.56,381.67l-.97,5.48,4.22-1.84c-1.16,4.29-4.76,6.61-3.75,11.34.24,1.11,1.83,1.9,1.85,3.42.16,8.51-5.73,16.8-9.38,23.8-2.34,4.5-1.22,9.05-8.89,10.95l-5.78-11.77c-.11-4.42-3.61-9.19-2.59-13.19.61-2.41,5.81-12.01,7.42-14.47.51-.77,5.42-7.31,5.79-7.61,2.11-1.76,9.25-3.93,12.07-6.11Z"/>
  <path class="cls-1" d="M149.21,361.92c10.64-2.94,3.87-21.76,15.68-14.36,2.49,1.56,9.37,13.12,9.63,16.07.22,2.43-1.94,11.44-3.08,13.57-3.85,7.2-17.88,6.07-25.06,6.35.26-4.96-6.65-11.89-5.8-16.1,1.72-8.55,4.04-4.25,8.63-5.52Z"/>
  <path class="cls-1" d="M112.36,325.41c2.93,0,4.81,2.13,7.46,2.85,8.1,2.17,32.25,3.74,33.2,14.41.2,2.27-1.2,11.7-2.56,13.4-4.62,5.79-24.24-5.19-28.82-9.05-5.38-4.52-4.34-6.76-6.52-12.31-1.12-2.85-5.25-5.35-2.76-9.3Z"/>
  <path class="cls-1" d="M283.15,380.85c1.49,2.79,7.01,2.1,8.78,6.29l-6.28,8.89c-.87-.63-1.75-1.78-2.75-2.07-4.2-1.24-21.84,4.37-27.73,5.52-.92.18-1.5,1.51-1.62,1.51-.45,0-3.57-2.9-3.72-3.59-.76-3.42,4.36-16.07,6.94-19.06,2.82-3.27,17.38-8.47,21.26-7.38,6.11,1.72,3.39,6.68,5.11,9.9Z"/>
  <path class="cls-1" d="M111.83,341.62c.98,4.3,6.46,9.95,10.18,12.06,2.63,1.5,5.22-.98,6.81-.24.36.16,4.62,4.99,5.25,5.87,9.7,13.4-3.47,17.73-15.53,14.3-6.23-1.77-11.62-5.87-16.8-9.6-1.02-1.34,1.24-3.26,1.59-4.93,1.06-5.2,2.14-9.74,5.14-14.35.69-1.07,2.92-1.54,3.37-3.1Z"/>
  <path class="cls-1" d="M189.71,391.4c5.85-1.37,11.77-2.95,17.78-.82.72,12.41,5.4,19.59,12.79,28.88,2.7,3.39,1.69,4.54-2.44,4.43-1.35-.03-18.86-4.19-19.71-4.75-.73-.49-.22-2.26-1.02-3.13-3.09-3.36-7.58-5.87-8.5-10.57-.44-2.24-.49-12.8,1.1-14.04Z"/>
  <path class="cls-1" d="M74.59,414.74c-.3.24-4.19-.18-5.8,1.44-1.49,1.49-.95,3.61-1.8,5.42-2.21,4.69-3.56,2.23-5.38,2.96-2.59,1.04-4.71,3.59-7.88,1.98,1.6-3.63-3.14-7.94-2.95-10.1.14-1.65,4.18-17.01,4.95-18.96.98-2.48,3.68-5.45,4.91-8.09.86-.67,8.75,3.27,10.14,4.08,3.79,2.19,7.82,4.41,7.1,9.53-.17,1.18-2.81,11.36-3.28,11.74Z"/>
  <path class="cls-1" d="M298.36,240.38c-9.23,2.34-16.95-1.15-24.58-6.41-4.43-3.05-17.27-14.02-14.25-19.89,9.32-7.87,13.24-1.48,19.79,4.03,3.81,3.21,5.58,5.17,8.68,8.01,4.45,4.08,12.65,6.89,10.36,14.25Z"/>
  <path class="cls-1" d="M202.44,354.79c1.59-.74,2.61-3.28,4.74-3.64l1.82,4.26,2.51.93,2.45-3.22,4.06,1.82c2.27-.56,2.08-5.68,4.32-3.66,4.29,3.87,3.08,8.33,2.31,13.3l13.36,5.98c2.39,1.93.2,6.44-2.71,3.71-1.31-1.23-.34-6.25-5.25-2.37l2.64,2.21c-2.85-1.89-4.2.72-6.08,1.06-7.05,1.27-18.4,2.64-24.7-.32,1.68-2.15,3.79,2.37,4.47-2.34l-1.56-1.74,1.93-2.21c-6.68-1.72-4.87-8.86-10.78-11.32,1.48-2.12,4.77-1.66,6.48-2.47ZM220.68,365.87c5.03-5.9-3.26-6.1-6.47-1.39l10.35,6.44c1.56-3.11-1.6-4.3-3.88-5.05Z"/>
  <path class="cls-1" d="M269.86,93.13c.77,1.4-3.18,10.95,2.91,17.67,1.94,2.14,5.74,2.98,6.02,5.8.47,4.63-3.44,4.84-4.46,7.01-1.3,2.76,1.62,11.34-2.48,12.02-1.01.17-2.11-1.63-3.29-1.93-1.73-.43-3.64.98-4.72.34-1.6-.94-6.13-11.83-6.21-14.16-.07-1.87,2.47-20.14,3.13-21.45,1.05-2.06,7.28-8.64,9.11-5.31Z"/>
  <path class="cls-1" d="M323.84,202.19l1.35-1.41c5.74,2.98,4.47,9.86,6.95,15.46.79,1.78,2.29,2.89,3.37,4.47,1.48,2.17-.03,4.43,6.2,5.26l-2.11,4.88c-4.73-2.44-5.57,3.64-8.08,4.12-1.18.22-10.71-1.76-11.55-2.45-1.59-1.88-.96-4.58-1.75-6.69-1.38-3.69-2.39-5.38-2.25-8.63.15-3.3.04-6.12,2.15-8.77l-2.22-.3,4.56-7.06,3.38,1.13Z"/>
  <path class="cls-1" d="M136.98,230.81c.64-.43,5.74.89,7.15.47s1.76-2.74,3.06-3.04c3.63-.84,7.8,4.34,14.89-.62,1.35-.94,7.43-4.95,7.78-5.28,2.35-2.3,4.06-9.8,8.72-8.05-2.87,4.05.17,7.62-1.1,11.88-.74,2.47-2.29,3.99-3.18,5.98-1.11,2.5,0,4.96-3.07,6.9-5.99,3.79-13.1-3.16-14.23-2.78-2.65,2.41,5.2,5.26,2.05,6.66-.75.33-14.21-2.34-16.06-2.94-3.17-1.03-11.08-5.81-6-9.17Z"/>
  <path class="cls-1" d="M288.24,197.04c1.24,1.99,2.22,6.5,4.06,8.72,2.96,3.56,8.04,5.63,10.85,8.75,1.03,1.14,6.74,10.52,6.66,11.4-.16,1.88-1.29,3.7-1.93,5.47-4.27-.97-7.67-3.64-11.35-5.43-1.34-.65-3.16-.09-5.05-1.28-2.27-1.43-2.19-4.54-3.06-5.65-5.1-6.41-10.24-11.11-12.46-19.63l8.91-4.76c1.72-.32,2.61,1.2,3.35,2.4Z"/>
  <path class="cls-1" d="M299.81,166.33c.27-3.19,2.59-6.51,5.73-7.45,2.62,6.5,22.65,16.66,21.99,22.42-.1.85-4.4,7.64-4.79,7.88-2.34,1.4-10.88-.19-13.01-1.88-1.54-1.22-10.08-19.05-9.92-20.97Z"/>
  <path class="cls-1" d="M348.01,209.54c-.85.22-2.33-1.13-3.18-1.06-1.23.11-1.59,1.62-2.24,1.46-.42-.1-6.62-3.84-7.22-4.35-2.37-2.02-4.07-10.05-7.61-12.3,2.19-2.4,6.69-11.61,9.3-12.06,2.2-.37,2.08,2.11,3.24,2.76,6.63,3.7,2.83,1.85,6.97,6.41,1.93,2.13,6.04,1.89,6.43,3.87-.37,3.02-3.03,14.58-5.68,15.27Z"/>
  <path class="cls-1" d="M61.33,362.8l1.72.41c-.13-3.62,14.13-8.48,17.19-9.06,9.31-1.77,10.1,5.58,15.35,10.9,1.66,1.68,4.5,1.85,5.17,4.47-2.62.22-11.64,2.69-13.25,2.37-4.93-.97-9.7-1.57-14.53-2.51-1.48-.29-16.34-3.55-11.66-6.58Z"/>
  <path class="cls-1" d="M347.94,103.05c-5.94,9.2-9.49-1.55-13.27-5.63-5.49-5.94-10.12-6.72-17.86-8.2l-8.68-15.42c1.43-.58,3.4-2.81,4.62-3.04,3.08-.58,15.2,11.16,18.19,13.98,2.27,2.14,16.83,17.08,16.99,18.32Z"/>
  <path class="cls-1" d="M79.06,349.43c-4.99,1.52-18.03-7.88-21.15-11.77-1.35-1.69-1.66-2.74-1.42-4.88-6.91.22,7.82-4.75,8.7-4.67,3.95.38,11.21,3.15,15.72,3.74l3.37,13.76c-.16.67-4.53,3.61-5.22,3.82Z"/>
  <path class="cls-1" d="M313.68,311.27l-6.84,14.74c-7.61-3.14-12.07-9.53-16.35-16.07-1.49-2.27-.58-5.69-5.6-5.51,1.07-3.05,1.91-6.8,5.76-6.83,8.5,3.23,15.3,8.84,23.03,13.68Z"/>
  <path class="cls-1" d="M142.38,282.12c3.42.24.18,2.91,2.73,3.46,2.93.64,5.06-2.55,7.43-1.58.77.32,8.84,8.11,9.72,9.25,2.44,3.15,3.19,7.01,5.02,10.44,1.03,1.94,4.64,3.03,2.96,5.84-4.34.09-7.13,2.01-11.35-.96l1.82-1.61-10.36-6.46,2.22-2.63-2.77-1.33c3.22-7.25-10.75-4.61-11.03-5.31l3.61-9.12Z"/>
  <path class="cls-1" d="M37.53,370.01c.61-.55,8.7-3.54,10.06-3.19,2.41.61,2.5,3.09,4.08,3.79,2.24,1,7.27-1.61,10.23,2.32,1.18,1.57.33,6.89,3.88,8,.58,2.29-10.28-.97-11.81-1.1-6.24-.52-12.35,1.55-18.22-2.71.63-2.07.16-5.63,1.79-7.1Z"/>
  <path class="cls-1" d="M128.21,231.91c-12.71-5.57-31-6.15-33.11-23.03,4.5-4.01,19.79,11.49,23.35,14.24,3.35,2.58,9.54,2.51,9.76,8.8Z"/>
  <path class="cls-1" d="M80.12,264.55l16.53,6.55,4.61,11.17c-3.42-2.49-12.03-.67-14.53-2.43-3.83-2.69-9.37-10.4-6.61-15.3Z"/>
  <path class="cls-1" d="M49.61,345.51c.29-.2,6.45-1.93,6.79-1.86,4.5,1,8.83,6.28,12.3,9.09.48,1.69-7.7,1.51-8.49,1.71-1.43.36-2.84,2.74-5.07,2.86-1.02.06-7.34-1.24-7.99-1.66-3.3-2.13.3-8.64,2.45-10.16Z"/>
  <path class="cls-1" d="M83.13,411.24l.43,4.85,3.21-2.24-.69,3.25c5.27-5.1,7-2.05,12.25.14l-6.23,12.79c-2.72-3.18.98-9.2-4.28-9.91-.99,4.86-4.15,2.23-4.73,7.52-1.39-5.04-1.67-11.48.03-16.4Z"/>
  <path class="cls-1" d="M139.6,244.65l-1.82,1.61,3.06,1.21-.23-2.42,9.76,5.03c-.52,2.07-2.18,5.17-4.76,4.65-.41-.08-6.7-2.22-7.16-2.43-7.98-3.76-9.68-13.55,1.16-7.64Z"/>
  <path class="cls-1" d="M119.54,266.21c.09-.07.86.3,2.13-.35.81-.42.52-3.29,4.03-.91,1.05-1.73-1.61-1.28-2.33-2.3-1.08-1.54-.17-6.75,3.7-5.08,2.52,1.09,5.04,7.78,6.93,10.1-1.47,3.92-2.53-1.74-4.01-1.68-4.97,1.38-5.49,3.5-4.45,8.29-2.3.14-8.07-6.48-6-8.06Z"/>
  <path class="cls-1" d="M126,240.45c-.29,1.48-2.43.82-3.48.64-7.04-1.22-17.26-1.74-17.41-10.08,7.84.5,14.36,5.58,20.89,9.43Z"/>
  <path class="cls-1" d="M129.39,273.46l3.1,2.3,3.16-3.35-3.24-.71,2.87-4.1,3.01,1.15c-3.38,4.53,1.3,8.02-1.37,12.35l-9.1-3.61,1.58-4.03Z"/>
  <path class="cls-1" d="M235.78,336.64l-3.44-.2,3.86,5.05-2.59-1.59c1.42-.88,1.97-1.51-.15-1.8-3.71-.52-3.6,3.84-7.59,2.84l2.6-3.67-2.23-.29c1.45-7.06,10.12-7.96,9.53-.34Z"/>
  <path class="cls-1" d="M156.33,261.96l3.23.49c1.53,1.94.55,5.33,1.3,7.05.94,2.14,4.28,1.6,2.34,4.42-5.92-2.48-1.71-8.6-8.53-8.07l1.65-3.89Z"/>
  <polygon class="cls-1" points="127.8 283.39 138.15 289.82 130.04 286.64 132.28 289.84 125.8 288.47 127.8 283.39"/>
</svg>