<?xml version="1.0" encoding="UTF-8"?>
<svg id="Calque_1" data-name="Calque 1" xmlns="http://www.w3.org/2000/svg" viewBox="0 0 265.95 36.52">
  <defs>
    <style>
      .cls-1 {
        fill: #fff;
      }

      .cls-2 {
        fill: #9cf;
      }
    </style>
  </defs>
  <path class="cls-2" d="M240.48,8.86c.87,0,1.6-.31,2.19-.93.58-.62.89-1.38.91-2.29.05-.93-.19-1.71-.74-2.35-.54-.64-1.25-.95-2.13-.95-.8,0-1.51.32-2.15.95-.64.64-.98,1.42-1.03,2.35-.03.9.23,1.66.78,2.29.54.62,1.27.93,2.17.93Z"/>
  <path class="cls-1" d="M131.54,28.58c-.4,1.38-.78,2.33-1.15,2.85-.37.52-.74.78-1.1.78-.15,0-.3-.08-.44-.25-.14-.17-.21-.53-.21-1.08,0-.49.02-1.09.07-1.79.05-.7.12-1.59.23-2.67.11-1.07.25-2.4.41-3.98.17-1.58.37-3.47.62-5.66.25-2.19.54-4.76.87-7.7.09-.8.18-1.61.28-2.44.09-.83.19-1.69.3-2.6.11-.9.21-1.83.3-2.78h-2.48c-.22.18-.6.38-1.15.6-.55.22-1.3.4-2.25.55-.95.15-2.13.23-3.54.23l-.18,3.5c.34-.03.84-.05,1.5-.07.66-.02,1.23-.04,1.72-.07-.12.67-.24,1.4-.35,2.18-.11.78-.19,1.48-.25,2.09-.18,1.56-.37,3.14-.55,4.74-.14,1.23-.28,2.45-.41,3.66,0,0,0,0,0,0,0,0-1.47,4.1-4.32,7.86,0,0,.01,0,.02,0-2.85,4.13-5.92,5.63-7.37,5.69-.24.03-.46.05-.67.05-.64,0-1.29-.18-1.93-.53-.64-.35-1.17-1-1.59-1.93-.41-.93-.62-2.28-.62-4.02,1.35-.18,2.74-.45,4.19-.8,1.44-.35,2.77-.81,3.98-1.36,1.21-.55,2.19-1.26,2.94-2.14.75-.87,1.13-1.94,1.13-3.2,0-1.35-.29-2.45-.87-3.31-.58-.86-1.4-1.49-2.44-1.89-1.04-.4-2.24-.6-3.59-.6-2.02,0-3.77.44-5.24,1.33-1.47.89-2.68,2.04-3.61,3.45-.94,1.41-1.63,2.93-2.09,4.55-.46,1.63-.69,3.17-.69,4.65,0,.36.01.71.03,1.05h0s-.1.56-.33,1.29c-.44,1.39-1.35,3.4-2.99,3.4-.18,0-.34-.08-.48-.23-.14-.15-.21-.48-.21-.97,0-1.13.1-2.38.3-3.73.2-1.35.39-2.7.57-4.05.18-1.35.28-2.58.28-3.68,0-2.18-.44-3.9-1.33-5.17-.89-1.27-2.32-1.91-4.28-1.91-.86,0-1.76.19-2.71.58-.95.38-1.87,1.08-2.76,2.09-.89,1.01-1.69,2.44-2.39,4.28h-.05c.18-.83.34-1.69.48-2.6.14-.9.27-1.79.39-2.64.12-.86.21-1.6.28-2.23.06-.63.11-1.07.14-1.31.09-.61.21-1.5.34-2.65.14-1.15.28-2.34.44-3.56.15-1.23.28-2.28.37-3.17h-2.48c-.21.18-.6.38-1.15.6-.55.22-1.3.4-2.25.55-.95.15-2.15.23-3.59.23l-.18,3.5,3.22-.14c-.12.61-.24,1.35-.34,2.21-.11.86-.19,1.55-.25,2.07-.12,1.1-.25,2.38-.39,3.82-.14,1.42-.27,2.95-.39,4.59-.01,0-.02-.01-.02-.01,0,0-1.91,5.33-5.59,9.4-1.32,1.46-2.88,2.77-4.65,3.6-.21.1-.43.19-.64.28-.07.02-.15.05-.22.07-.74.2-1.4.28-1.98.25-.64-.06-1.27-.32-1.89-.78-.61-.46-1.1-1.2-1.47-2.21-.37-1.01-.52-2.35-.46-4,.03-.88.11-1.84.26-2.9,0-.05.01-.11.02-.16.13-.95.34-1.87.62-2.75.05-.15.09-.3.14-.45.35-1.01.84-1.85,1.47-2.51.63-.66,1.43-.99,2.41-.99.55,0,1.03.1,1.43.3.4.2.66.44.78.71-.15.31-.27.64-.34.99-.08.35-.11.67-.11.94,0,.52.21,1.11.64,1.77.43.66,1.16.97,2.21.94.89-.03,1.6-.34,2.14-.92.54-.58.81-1.33.81-2.25,0-1.13-.33-2.11-.99-2.92-.66-.81-1.55-1.45-2.67-1.91-1.12-.46-2.38-.69-3.79-.69-1.93,0-3.6.44-5.01,1.33-1.41.89-2.58,2.04-3.52,3.45-.94,1.41-1.63,2.93-2.09,4.55-.46,1.63-.69,3.17-.69,4.65,0,.5.02.97.06,1.43-.49.55-1.01,1.08-1.56,1.58-1.31,1.17-2.81,2.14-4.47,2.67-.04.02-.09.03-.13.04-.06.01-.13.03-.19.03-.15,0-.3-.08-.44-.25-.14-.17-.21-.53-.21-1.08,0-.8.08-1.92.23-3.38.15-1.46.34-3.05.57-4.78.23-1.73.47-3.43.71-5.08.25-1.66.44-3.05.6-4.19-1.26-.31-2.46-.54-3.61-.71-1.15-.17-2.15-.25-3.01-.25-2.21,0-4.17.41-5.89,1.24-1.72.83-3.17,1.97-4.37,3.43-1.2,1.46-2.1,3.12-2.71,4.99-.61,1.87-.92,3.86-.92,5.98,0,1.77.23,3.25.69,4.45-.05.02-.1.04-.15.05-.78.23-1.53.34-2.23.34-.15,0-.29,0-.43-.01h0c-.67-.03-1.26-.19-1.77-.48s-1-.74-1.47-1.36c-.3-.39-.64-.86-1-1.42-.08-.12-.16-.25-.24-.37-.14-.22-.28-.45-.43-.69l-1.98-3.22c-.18-.31-.4-.61-.64-.9-.25-.29-.5-.57-.76-.85-.26-.28-.53-.51-.8-.71-.28-.2-.55-.36-.83-.48,1.81-.52,3.33-1.23,4.55-2.12,1.23-.89,2.17-1.92,2.83-3.08.66-1.17,1.03-2.39,1.13-3.68.21-2.45-.17-4.4-1.15-5.84-.98-1.44-2.44-2.48-4.37-3.13-1.93-.64-4.25-.95-6.94-.92-2.15.03-4.3.05-6.46.05s-4.33.02-6.51.05l-.18,3.54c.34-.03.87-.05,1.61-.07.74-.02,1.35-.04,1.84-.07-.06.4-.13.98-.21,1.75-.08.77-.15,1.56-.21,2.39l-.92,17.62c-.06,1.23-.24,2.12-.53,2.67-.29.55-.68.9-1.17,1.06-.49.15-1.07.25-1.75.28l-.18,3.04h13.57l.14-3.54c-.22,0-.57,0-1.06.02-.49.02-1,.03-1.52.05-.52.02-.95.04-1.29.07.06-.4.13-.98.21-1.75.08-.77.13-1.58.16-2.44l.28-4.92h2.39c.28.31.56.68.85,1.1.29.43.61.95.94,1.56l3.08,5.52c.55.98,1.09,1.85,1.61,2.6.52.75,1.04,1.33,1.56,1.73h7.27c.23,0,.46.01.69.01,1.32,0,2.51-.17,3.59-.51.29-.09.56-.17.83-.23,1.01.82,2.17,1.23,3.48,1.23.71,0,1.4-.11,2.09-.32.69-.21,1.36-.58,2.02-1.1.66-.52,1.3-1.23,1.93-2.12.63-.89,1.22-1.99,1.77-3.31h.05c-.06.4-.11.84-.14,1.33-.03.49-.05.94-.05,1.33,0,1.63.37,2.73,1.1,3.31s1.59.87,2.58.87,1.81-.15,1.81-.15c2.26-.48,4.73-1.72,7.11-4.36.38.78.85,1.46,1.43,2.03,1.66,1.63,3.83,2.45,6.53,2.48,1.82.03,2.64-.15,2.64-.15,3.58-.76,7.69-3.43,11.16-10.59-.05,1.08-.1,2.15-.13,3.22-.06,1.7-.09,3.3-.09,4.81,0,.31,0,.59.02.85.02.26.05.71.11,1.36h5.89c-.03-.37-.06-.91-.09-1.63-.03-.72-.05-1.28-.05-1.68,0-1.29.13-2.66.39-4.12.26-1.46.61-2.88,1.06-4.28.44-1.4.95-2.67,1.52-3.82.57-1.15,1.15-2.06,1.75-2.74.6-.67,1.17-1.01,1.72-1.01.31,0,.55.06.74.18.18.12.32.33.41.62.09.29.14.67.14,1.13,0,.71-.06,1.59-.18,2.64-.12,1.06-.25,2.18-.39,3.38-.14,1.2-.27,2.37-.39,3.52s-.18,2.18-.18,3.1c0,1.63.31,2.9.92,3.82.61.92,1.76,1.38,3.45,1.38.06,0,.11,0,.17,0,.02,0,.05,0,.07,0,2.67-.04,5.08-2.12,6.29-4.63h0c.39.85.89,1.59,1.5,2.2,1.66,1.66,3.89,2.47,6.71,2.44.67,0,1.34-.07,2-.19.03,0,.05-.01.08-.02h-.02c3.57-.67,7.4-3.21,10.81-9.89-.05.7-.09,1.39-.13,2.05-.08,1.32-.11,2.53-.11,3.63,0,1.59.41,2.73,1.24,3.4.83.67,1.79,1.01,2.9,1.01s2.06-.22,2.87-.67c.81-.44,1.5-1.03,2.05-1.75.55-.72,1-1.5,1.36-2.35.35-.84.62-1.65.81-2.41l-2.48-.74ZM108.11,19.41c.34-1.12.83-2.05,1.47-2.78.64-.74,1.49-1.1,2.53-1.1.46,0,.9.16,1.33.48.43.32.66.87.69,1.63.03.74-.18,1.44-.62,2.12-.44.67-1.16,1.27-2.14,1.79-.98.52-2.3.94-3.96,1.24.12-1.13.35-2.26.69-3.38ZM17.06,19.41c-1.07.51-2.47.76-4.19.76-.4,0-.78-.02-1.15-.07-.37-.05-.72-.08-1.06-.11l.46-9.43c.06-1.07.23-1.87.51-2.39.28-.52.65-.86,1.13-1.01.48-.15,1.03-.23,1.68-.23.46,0,1.04.05,1.75.16.7.11,1.39.37,2.05.78.66.41,1.2,1.04,1.63,1.89.43.84.6,2,.51,3.47-.06,1.56-.36,2.86-.9,3.89-.54,1.03-1.34,1.79-2.41,2.3ZM44.32,20.14c-.23,1.52-.52,3.01-.87,4.46-.35,1.46-.77,2.78-1.24,3.96-.48,1.18-1,2.12-1.59,2.81-.58.69-1.21,1.03-1.89,1.03-.55,0-.98-.36-1.29-1.08-.31-.72-.46-1.71-.46-2.97,0-2.12.14-3.97.41-5.57.28-1.59.68-2.93,1.22-4,.54-1.07,1.16-1.89,1.89-2.44.72-.55,1.51-.83,2.37-.83.34,0,.7.03,1.08.09.38.06.65.12.81.18-.06,1.38-.21,2.83-.44,4.35Z"/>
  <path class="cls-1" d="M215.81,26.12c-.72-.9-1.61-1.69-2.67-2.37-1.06-.67-2.09-1.3-3.1-1.89-1.23-.74-2.15-1.31-2.76-1.72-.61-.41-1.02-.78-1.22-1.1-.2-.32-.3-.7-.3-1.13,0-.52.17-.96.51-1.31.34-.35.74-.62,1.22-.8.48-.18.93-.28,1.36-.28s.9.07,1.4.21c.51.14.88.38,1.13.71-.09.21-.16.43-.21.64-.05.21-.07.44-.07.69,0,.74.25,1.39.76,1.95.51.57,1.17.85,2,.85.89,0,1.59-.31,2.12-.92.52-.61.78-1.32.78-2.12,0-1.07-.39-1.98-1.17-2.74-.78-.75-1.76-1.33-2.94-1.72-1.18-.4-2.38-.6-3.61-.6-1.87,0-3.46.33-4.76.99-1.3.66-2.29,1.49-2.97,2.51-.67,1.01-1.01,2.05-1.01,3.13s.22,2,.67,2.78c.44.78,1.14,1.53,2.09,2.23.95.71,2.15,1.47,3.59,2.3.8.46,1.55.9,2.25,1.33.71.43,1.28.87,1.72,1.31.44.44.67.96.67,1.54,0,.74-.27,1.4-.8,1.98-.54.58-1.48.87-2.83.87-.46,0-1.02-.14-1.68-.41-.66-.28-1.07-.57-1.22-.87.09-.25.16-.48.21-.71.05-.23.07-.45.07-.67,0-.8-.26-1.47-.78-2.02-.52-.55-1.2-.83-2.02-.83-.38,0-.73.07-1.06.19-.38.15-.73.38-1.03.7-.05.05-.09.11-.14.16-.21.25-.37.54-.49.85v.02c-.41,1.13-1.1,2.36-2.72,2.36-.44,0-.54-.01-.54-.01-.15,0-.3-.08-.44-.25-.14-.17-.21-.53-.21-1.08,0-.8.08-1.92.23-3.38.15-1.46.34-3.05.57-4.78.23-1.73.47-3.43.71-5.08.25-1.66.44-3.05.6-4.19-1.26-.31-2.46-.54-3.61-.71-1.15-.17-2.15-.25-3.01-.25-2.21,0-4.17.41-5.89,1.24-1.72.83-3.17,1.97-4.37,3.43-1.2,1.46-2.1,3.12-2.71,4.99-.61,1.87-.92,3.86-.92,5.98,0,2.85.6,4.96,1.79,6.32,1.2,1.36,2.64,2.05,4.32,2.05.71,0,1.4-.11,2.09-.32.69-.21,1.36-.58,2.02-1.1.66-.52,1.3-1.23,1.93-2.12.63-.89,1.22-1.99,1.77-3.31h.05c-.06.4-.11.84-.14,1.33-.03.49-.05.94-.05,1.33,0,1.63.37,2.73,1.1,3.31s1.59.87,2.58.87c0,0,0,0,0,0h0s.02,0,.03,0c.49,0,.95-.06,1.38-.18,1.54-.4,2.94-1.42,3.99-2.72.1.13.21.27.33.4.77.81,1.77,1.43,3.01,1.86,1.24.43,2.6.64,4.07.64,1.78,0,3.37-.3,4.78-.9,1.41-.6,2.53-1.43,3.36-2.51.83-1.07,1.24-2.3,1.24-3.68,0-1.29-.36-2.38-1.08-3.29ZM190.84,20.14c-.23,1.52-.52,3.01-.87,4.46-.35,1.46-.77,2.78-1.24,3.96-.48,1.18-1,2.12-1.59,2.81-.58.69-1.21,1.03-1.89,1.03-.55,0-.98-.36-1.29-1.08-.31-.72-.46-1.71-.46-2.97,0-2.12.14-3.97.41-5.57.28-1.59.68-2.93,1.22-4,.54-1.07,1.16-1.89,1.89-2.44.72-.55,1.51-.83,2.37-.83.34,0,.7.03,1.08.09.38.06.65.12.81.18-.06,1.38-.21,2.83-.44,4.35Z"/>
  <path class="cls-1" d="M172.58,21.66c-1.33-1.55-3.5-2.57-6.51-3.06v-.05c1.47-.4,2.69-.94,3.66-1.61.97-.67,1.71-1.43,2.23-2.28.52-.84.83-1.71.92-2.6.34-2.82-.53-4.93-2.6-6.32-2.07-1.39-4.93-2.08-8.58-2.05-2.12.03-4.22.05-6.32.05s-4.21.02-6.32.05l-.18,3.54c.34-.03.87-.05,1.61-.07.74-.02,1.35-.04,1.84-.07-.06.4-.13.98-.21,1.75-.08.77-.15,1.56-.21,2.39l-.92,17.62c-.06,1.23-.24,2.12-.53,2.67-.29.55-.68.9-1.17,1.06-.49.15-1.07.25-1.75.28l-.18,3.04h15.55c2.15,0,4.07-.34,5.77-1.03,1.7-.69,3.07-1.72,4.09-3.08,1.03-1.36,1.59-3.04,1.68-5.04.09-1.9-.53-3.63-1.86-5.17ZM158.49,10.78c.06-1.2.22-2.06.48-2.6.26-.54.61-.88,1.03-1.03.43-.15.89-.23,1.38-.23.8-.03,1.56.11,2.28.41.72.31,1.31.8,1.77,1.49.46.69.64,1.65.55,2.87-.03,1.1-.23,2.12-.6,3.06-.37.94-.94,1.68-1.72,2.23-.78.55-1.83.84-3.15.87-.4,0-.8,0-1.2.02-.4.02-.8.02-1.2.02l.37-7.13ZM167.32,26.7c-.09,1.69-.59,3.08-1.49,4.19-.9,1.1-2.29,1.7-4.16,1.79-.49,0-.98,0-1.47.02-.49.02-.98.02-1.47.02h-1.56c.06-.4.14-.97.23-1.7.09-.74.15-1.52.18-2.35l.37-7.5c.61-.03,1.2-.05,1.75-.05h1.98c1.01,0,1.96.17,2.85.51.89.34,1.6.91,2.14,1.72.54.81.76,1.92.67,3.33Z"/>
  <path class="cls-1" d="M233.01,29.18c-.68,1.37-1.52,2.36-2.71,2.75-.38.1-.67.15-.88.15-.67,0-1.17-.17-1.47-.51-.31-.34-.51-.74-.6-1.22-.09-.47-.14-.91-.14-1.31,0-.52.04-1.27.11-2.23.08-.97.17-2.05.28-3.27.11-1.21.24-2.45.39-3.73.15-1.27.29-2.46.41-3.56l5.75-.09.28-3.17h-5.75l.92-6.95h-3.08c-.43,2.24-1.19,3.96-2.28,5.15-1.09,1.2-2.77,1.79-5.04,1.79l-.41,3.36,3.68-.05c-.15,1.44-.31,2.95-.46,4.53-.15,1.58-.28,3.08-.37,4.51-.09,1.43-.17,2.66-.23,3.7-.03,1.26.09,2.46.37,3.61.28,1.15.84,2.08,1.68,2.78.84.7,2.11,1.06,3.79,1.06,1.17,0,2.3-.23,3.37-.68,0,0,0,0,0,.01,2.11-.88,3.6-2.37,4.69-4.14l-2.31-2.5Z"/>
  <path class="cls-1" d="M258.59,12.51c1.35,0,2.54.2,3.59.6,1.04.4,1.85,1.03,2.44,1.89.58.86.87,1.96.87,3.31,0,1.26-.38,2.32-1.13,3.2-.75.87-1.73,1.59-2.94,2.14-1.21.55-2.54,1-3.98,1.36-1.44.35-2.84.62-4.19.8,0,1.75.21,3.09.62,4.02.41.94.94,1.58,1.59,1.93.64.35,1.29.53,1.93.53.52,0,1.14-.1,1.86-.3.72-.2,1.45-.62,2.18-1.26s1.38-1.59,1.93-2.85l2.58,1.24c-.86,1.99-1.82,3.53-2.9,4.6-1.07,1.07-2.19,1.81-3.36,2.21-1.17.4-2.35.6-3.54.6-2.82.03-5.06-.78-6.72-2.44-1.66-1.66-2.48-4.19-2.48-7.59,0-1.47.23-3.02.69-4.65.46-1.62,1.16-3.14,2.09-4.55.93-1.41,2.14-2.56,3.61-3.45,1.47-.89,3.22-1.33,5.24-1.33ZM255.19,10.03l-2.02-1.89,4.09-6.44c.34-.52.77-.93,1.29-1.24.52-.31,1.06-.46,1.61-.46s1.04.2,1.47.6c.49.43.76.93.8,1.49.05.57-.06,1.13-.32,1.68-.26.55-.62,1.01-1.08,1.38l-5.84,4.88ZM258.09,15.55c-1.04,0-1.89.37-2.53,1.1-.64.74-1.13,1.66-1.47,2.78-.34,1.12-.57,2.25-.69,3.38,1.66-.31,2.97-.72,3.96-1.24.98-.52,1.69-1.12,2.14-1.79.44-.67.65-1.38.62-2.12-.03-.77-.26-1.31-.69-1.63-.43-.32-.87-.48-1.33-.48Z"/>
  <path class="cls-1" d="M241.56,12.47h-.73v3.11s.04.02.07.03c.32.14.55.46.55.84,0,.06,0,.13-.02.18-.09.42-.46.73-.9.73s-.81-.31-.9-.73c-.01-.06-.02-.12-.02-.18,0-.38.23-.69.55-.84.02,0,.04-.02.07-.03v-3.11h-.73s-1.03,4.28-3.11,4.28c0,1.32.5,3.09.5,3.09,0,0,2.03.14,2.03,1.06v.82h-.51c-.3,0-.55.25-.55.55s.25.55.55.55h.14s-.01.06-.03.1c-.19.55-1.28,2.26-1.42,4.78-.01.17-.02.35-.02.53h0c0,.36,0,.69.02,1.02.13,3.47.96,5.59,1.95,6.59,0,0,.01.01.02.02.04.04.07.07.11.1.02.02.05.04.07.06.02.02.04.03.06.05.04.03.07.06.11.08,0,0,.01,0,.02.01.19.13.39.23.6.29,0,0,0,0,0,0,.05.01.1.03.15.04.01,0,.02,0,.04,0,.04,0,.08.01.12.02.05,0,.09,0,.14,0,0,0,.01,0,.02,0h0s.01,0,.02,0c0,0,.01,0,.02,0h0s.01,0,.02,0c.05,0,.09,0,.14,0,.04,0,.08-.01.12-.02.01,0,.02,0,.04,0,.05,0,.1-.02.15-.04,0,0,0,0,0,0,.2-.06.4-.16.6-.29,0,0,.01,0,.02-.01.04-.03.07-.05.11-.08.02-.02.04-.03.06-.05.02-.02.05-.04.07-.06.04-.03.07-.07.11-.1,0,0,.01-.01.02-.02,1-.99,1.82-3.11,1.95-6.59.01-.33.02-.66.02-1.01h0c0-.19,0-.36-.02-.53-.14-2.52-1.23-4.23-1.42-4.78-.01-.04-.02-.08-.03-.1h.14c.3,0,.55-.25.55-.55s-.25-.55-.55-.55h-.51v-.82c0-.91,2.03-1.06,2.03-1.06,0,0,.5-1.77.5-3.09-2.08,0-3.11-4.28-3.11-4.28Z"/>
</svg>